<svg id="Flat" height="512" viewBox="0 0 64 64" width="512" xmlns="http://www.w3.org/2000/svg"><path d="m6 32h26v26h-26z" fill="#a67c52"/><path d="m32 32h26v26h-26z" fill="#8c6239"/><path d="m15 6h26v26h-26z" fill="#c69c6d"/><path d="m24 6v7l2-2 2 2 2-2 2 2v-7z" fill="#a67c52"/><path d="m15 32v7l2-2 2 2 2-2 2 2v-7z" fill="#8c6239"/><path d="m41 32v7l2-2 2 2 2-2 2 2v-7z" fill="#c69c6d"/><g fill="#29485a"><path d="m9 41h5v2h-5z"/><path d="m9 45h7v2h-7z"/><path d="m35 41h6v2h-6z"/><path d="m35 45h9v2h-9z"/><path d="m18 15h3v2h-3z"/><path d="m18 19h9v2h-9z"/><path d="m24 50h4v4h-4z"/><path d="m50 50h4v4h-4z"/><path d="m33 24h4v4h-4z"/><path d="m2 57h60v2h-60z"/></g></svg>